<svg width="113" height="46" viewBox="0 0 113 46" fill="none" xmlns="http://www.w3.org/2000/svg">
<path d="M61.7431 17.3179C62.3847 17.2996 63.008 17.0623 63.4663 16.6241C63.9979 16.1494 64.2729 15.4739 64.2729 14.5611C64.2912 13.6299 63.8879 12.7536 63.173 12.1694C62.4397 11.5669 61.4682 11.2565 60.2766 11.2565H53.109V23.8175H60.2766C61.5782 23.8175 62.6414 23.4888 63.4296 22.8316C64.2179 22.2108 64.6762 21.2432 64.6395 20.2391C64.6395 19.2349 64.3645 18.5229 63.8146 18.0664C63.228 17.61 62.4947 17.3727 61.7431 17.4092V17.3179ZM57.2702 14.3602H59.0301C59.3417 14.342 59.6533 14.4333 59.8917 14.6158C60.2766 14.9445 60.3316 15.5287 60.0016 15.9304C59.965 15.9669 59.9283 16.0034 59.8917 16.0399C59.6533 16.2225 59.3417 16.332 59.0301 16.3138H57.2702V14.3602ZM57.2702 20.6955V18.6324H59.2134C59.525 18.6142 59.8367 18.7054 60.075 18.888C60.2949 19.0523 60.4049 19.3079 60.4049 19.5818C60.4233 19.8922 60.2949 20.1843 60.075 20.3851C59.8367 20.5859 59.525 20.6955 59.2134 20.6772L57.2702 20.6955Z" fill="white"/>
<path d="M67.6826 9.39427C67.0959 9.37601 66.5093 9.59509 66.106 10.015C65.7028 10.4167 65.4828 10.9644 65.4828 11.5304C65.4644 12.0963 65.6844 12.6623 66.106 13.0457C66.5277 13.4656 67.0959 13.6847 67.6826 13.6665C68.2692 13.6847 68.8558 13.4656 69.2774 13.0457C70.1207 12.2059 70.1207 10.8548 69.2774 10.015C68.8558 9.59509 68.2875 9.37601 67.6826 9.39427ZM69.7174 23.8175V14.2872H65.6661V23.8175H69.7174Z" fill="white"/>
<path d="M80.4963 23.8175V20.7137H76.4634L80.423 16.9162V14.2872H71.0372V17.3909H74.9419L70.9456 21.2615V23.8175H80.4963Z" fill="white"/>
<path d="M88.3972 13.9951C87.3156 13.9951 86.2707 14.4698 85.5925 15.3096V14.2689H81.5412V23.7992H85.5925V18.9793C85.5741 18.6142 85.6841 18.249 85.9224 17.9386C86.1424 17.683 86.454 17.537 86.784 17.5552C87.0773 17.537 87.3523 17.6648 87.5539 17.8839C87.7556 18.1212 87.8656 18.4133 87.8472 18.7237V23.7992H91.8985V17.8474C91.8985 16.6424 91.5869 15.693 90.9453 15.0175C90.3037 14.342 89.4421 13.9951 88.3972 13.9951Z" fill="white"/>
<path d="M103.081 20.0017V19.4175C103.081 17.6648 102.622 16.332 101.706 15.4009C100.789 14.4698 99.5611 14.0133 98.0212 14.0133C96.6281 13.9768 95.2715 14.488 94.2449 15.4374C93.2001 16.3868 92.6868 17.5918 92.6868 19.0706C92.6868 20.5494 93.2001 21.7544 94.2449 22.7038C95.2715 23.6532 96.6464 24.1461 98.0396 24.1278C99.2495 24.1278 100.276 23.8722 101.138 23.361C101.999 22.8316 102.659 22.0283 102.989 21.0606L99.3778 20.3486C99.2861 20.5859 99.1028 20.7868 98.8645 20.9146C98.6079 21.0606 98.3146 21.1337 98.0212 21.1154C97.3063 21.1154 96.8297 20.7503 96.6097 20.02H103.062L103.081 20.0017ZM98.0212 17.0258C98.2962 17.0258 98.5529 17.1171 98.7728 17.2814C99.0112 17.464 99.1761 17.7013 99.2495 17.9752H96.6464C96.8847 17.3362 97.343 17.0258 98.0212 17.0258Z" fill="white"/>
<path d="M103.447 21.371C103.667 22.2656 104.272 23.0142 105.097 23.4158C105.959 23.8722 107.059 24.0913 108.379 24.0913C109.717 24.0913 110.835 23.7992 111.697 23.2332C112.54 22.722 113.035 21.8092 112.998 20.8415C112.998 19.0706 112.008 18.0117 110.047 17.6465L107.902 17.2631C107.572 17.2084 107.407 17.0806 107.407 16.8797C107.407 16.6241 107.627 16.4963 108.085 16.4963C108.36 16.4781 108.635 16.5694 108.855 16.7337C109.038 16.8615 109.167 17.044 109.24 17.2449L112.778 16.5511C112.246 14.8349 110.67 13.9951 108.03 13.9951C106.765 13.9951 105.702 14.2872 104.841 14.8897C104.016 15.4374 103.521 16.3868 103.557 17.3727C103.557 18.9976 104.529 19.9652 106.472 20.2573L108.379 20.5494C108.58 20.5677 108.782 20.6042 108.983 20.6772C109.093 20.732 109.167 20.8415 109.148 20.9693C109.148 21.2249 108.892 21.3345 108.397 21.3345C108.14 21.3345 107.902 21.2615 107.682 21.1337C107.462 21.0059 107.315 20.8233 107.242 20.5859L103.429 21.3345H103.447V21.371Z" fill="white"/>
<path d="M62.5681 37.5652V34.4797H58.5351L62.4947 30.6639V28.0349H53.0907V31.1386H56.9953L52.999 34.9909V37.5652H62.5681Z" fill="white"/>
<path d="M68.4708 27.761C67.0409 27.7245 65.6661 28.2357 64.6029 29.1851C62.5864 31.0473 62.4764 34.1876 64.3462 36.1959C64.4195 36.2872 64.5112 36.3602 64.6029 36.4515C66.821 38.332 70.1023 38.332 72.3204 36.4515C74.3369 34.571 74.4469 31.4307 72.5587 29.4224C72.4854 29.3312 72.3938 29.2581 72.3204 29.1851C71.2755 28.2357 69.9007 27.7245 68.4708 27.761ZM68.4708 34.5345C68.0308 34.5345 67.6276 34.3519 67.3526 34.0233C67.0593 33.6946 66.8943 33.2565 66.9126 32.8C66.8943 32.3436 67.0593 31.9237 67.3526 31.5768C67.9025 30.956 68.8374 30.9013 69.4607 31.449C69.5157 31.4855 69.5524 31.5403 69.589 31.5768C69.8823 31.9237 70.0473 32.3436 70.029 32.8C70.0473 33.2565 69.8823 33.6764 69.589 34.0233C69.3141 34.3519 68.9108 34.5345 68.4708 34.5345Z" fill="white"/>
<path d="M81.5229 27.761C80.4413 27.761 79.3964 28.2357 78.7181 29.0756V28.0349H74.6669V37.5652H78.7181V32.7453C78.6998 32.3801 78.8098 32.015 79.0481 31.7046C79.2681 31.449 79.5797 31.3029 79.9097 31.3212C80.203 31.3029 80.478 31.4307 80.6796 31.6498C80.8813 31.8872 80.9912 32.1793 80.9729 32.4897V37.5652H85.0242V31.6133C85.0242 30.4083 84.7126 29.459 84.0709 28.7834C83.4293 28.1079 82.5861 27.7428 81.5412 27.7428V27.761H81.5229Z" fill="white"/>
<path d="M96.2064 33.1652C96.2064 31.4125 95.7481 30.0797 94.8316 29.1486C93.915 28.2175 92.6868 27.761 91.1469 27.761C89.7537 27.7245 88.3972 28.2357 87.3706 29.1851C86.3257 30.1345 85.8125 31.3394 85.8125 32.8183C85.8125 34.2971 86.3257 35.5021 87.3706 36.4515C88.3972 37.4008 89.7721 37.8938 91.1653 37.8755C92.3751 37.8755 93.4017 37.6199 94.2633 37.1087C95.1249 36.5793 95.7848 35.776 96.1148 34.8266L92.5218 34.1328C92.4301 34.3701 92.2468 34.571 92.0085 34.6988C91.7519 34.8448 91.4586 34.9179 91.1653 34.8996C90.4503 34.8996 89.9737 34.5345 89.7537 33.8042H96.2064V33.1652ZM91.1469 30.7735C91.4219 30.7735 91.6785 30.8648 91.8985 31.0291C92.1368 31.2116 92.3018 31.449 92.3751 31.7411H89.7721C90.0287 31.1021 90.4687 30.7735 91.1469 30.7735Z" fill="white"/>
<path d="M98.7729 33.293C98.1862 33.2747 97.618 33.5121 97.2147 33.932C96.8114 34.3519 96.5914 34.8996 96.5914 35.4838C96.5731 36.0681 96.7931 36.634 97.2147 37.0357C97.6363 37.4556 98.2046 37.6747 98.7912 37.6564C99.3778 37.6747 99.9644 37.4556 100.386 37.0357C101.248 36.1776 101.248 34.7901 100.404 33.932C99.9461 33.5303 99.3778 33.293 98.7729 33.293Z" fill="#B841E9"/>
<path d="M23.1553 0.758601C24.3102 0.758601 25.4467 0.849887 26.6016 1.0142C26.9866 0.156113 27.9948 -0.227289 28.8564 0.137855C29.718 0.521257 30.1029 1.5254 29.7363 2.38349C29.3697 3.24158 28.3431 3.62498 27.4815 3.25984C26.9132 3.00424 26.5099 2.45652 26.4733 1.83578C14.8328 0.0465694 3.94383 7.95195 2.14734 19.527C1.98235 20.6042 1.8907 21.6996 1.8907 22.7951C1.8907 23.361 1.90903 23.9088 1.96402 24.4747C2.89893 24.6208 3.54053 25.4789 3.39388 26.41C3.24723 27.3411 2.38565 27.9801 1.45074 27.8341C0.515832 27.688 -0.125772 26.8299 0.0208801 25.8988C0.112538 25.2781 0.534163 24.7668 1.12077 24.566C1.08411 23.9818 1.04745 23.3976 1.04745 22.7951C1.02911 10.6175 10.9281 0.740344 23.1553 0.758601C23.1553 0.740344 23.1553 0.740344 23.1553 0.758601ZM44.7682 22.8133C45.7031 22.8133 46.473 23.5619 46.4913 24.5112C46.4913 25.3511 45.868 26.0814 45.0248 26.2092C44.3099 30.7735 42.1651 35.0092 38.9021 38.2955C39.0121 38.5328 39.067 38.7701 39.067 39.0257C39.067 39.9569 38.2971 40.7237 37.3622 40.7237C36.4273 40.7237 35.6574 39.9569 35.6574 39.0257C35.6574 38.0946 36.4273 37.3278 37.3622 37.3278C37.7105 37.3278 38.0588 37.4374 38.3521 37.6564C41.4501 34.5162 43.4849 30.4814 44.1632 26.1361C43.2833 25.8075 42.8433 24.8216 43.1733 23.9453C43.4483 23.2698 44.0532 22.8498 44.7682 22.8133ZM44.6215 17.4092C45.5564 17.464 46.2897 18.2673 46.2347 19.2167C46.1797 20.1478 45.3731 20.8781 44.4199 20.8233C43.4666 20.7685 42.7517 19.9652 42.8067 19.0158C42.8433 18.3951 43.21 17.8474 43.7782 17.5735C42.8983 14.1229 41.1568 10.9461 38.7004 8.33535C37.8938 8.82829 36.8489 8.59095 36.354 7.78763C35.859 6.98431 36.0973 5.94365 36.9039 5.45071C37.7105 4.95776 38.7554 5.19511 39.2504 5.99842C39.4153 6.27228 39.507 6.58265 39.507 6.89303C39.507 7.18514 39.4337 7.47726 39.287 7.73286C41.8718 10.4532 43.7049 13.776 44.6215 17.4092ZM24.7685 42.6042C25.7034 42.6042 26.4733 43.371 26.4733 44.3021C26.4733 45.2332 25.7034 46 24.7685 46C24.0352 46 23.3753 45.5253 23.1553 44.8315C17.2892 44.8315 11.6614 42.5129 7.51848 38.3867C6.38192 37.2548 5.37369 36.0133 4.49377 34.6623C4.34712 34.6988 4.18214 34.7353 4.01715 34.7353C3.08225 34.7353 2.31232 33.9685 2.31232 33.0374C2.31232 32.1063 3.08225 31.3394 4.01715 31.3394C4.95206 31.3394 5.72199 32.1063 5.72199 33.0374C5.72199 33.4938 5.53867 33.932 5.2087 34.2423C9.11332 40.3037 15.841 43.9734 23.0819 43.9917C23.2469 43.1884 23.9435 42.6042 24.7685 42.6042ZM32.0094 23.1054C32.8527 23.5071 33.2193 24.5112 32.816 25.3511C32.4127 26.1909 31.4045 26.5561 30.5612 26.1544C29.718 25.7527 29.3513 24.7486 29.7546 23.9088C30.0113 23.361 30.5612 22.9959 31.1662 22.9411V22.7951C31.1662 18.4864 27.7382 14.9627 23.4119 14.8167C23.2286 15.7295 22.3487 16.332 21.4138 16.1494C20.4972 15.9669 19.8923 15.0905 20.0756 14.1594C20.2589 13.2465 21.1388 12.6441 22.0737 12.8266C22.6787 12.9362 23.1736 13.3743 23.3753 13.9586C28.1964 14.0681 32.0277 17.9934 32.0277 22.7768C32.0277 22.8864 32.0277 22.9959 32.0094 23.1054ZM16.6109 15.8208C17.5458 15.8208 18.3158 16.5876 18.3158 17.5187C18.3158 18.4498 17.5458 19.2167 16.6109 19.2167C16.4093 19.2167 16.226 19.1801 16.0243 19.1071C14.4295 22.1926 15.0161 25.9536 17.4725 28.4183C18.4624 29.4042 19.6723 30.1162 21.0288 30.4814C21.3771 29.605 22.367 29.1668 23.2469 29.5137C24.1268 29.8606 24.5668 30.8465 24.2185 31.7229C23.8702 32.5992 22.8803 33.0374 22.0004 32.6905C21.4138 32.4714 21.0105 31.9419 20.9188 31.3212C16.171 30.098 13.3296 25.278 14.5578 20.5494C14.7411 19.8739 14.9794 19.2349 15.3094 18.6142C15.0344 18.3038 14.8878 17.9021 14.8878 17.5005C14.9061 16.5694 15.6577 15.8208 16.6109 15.8208ZM23.1553 6.96606C31.9361 6.96606 39.0487 14.0499 39.0487 22.7951C39.0487 31.5403 31.9361 38.6241 23.1553 38.6241C14.3745 38.6241 7.26184 31.5403 7.26184 22.7951C7.26184 18.5959 8.93001 14.5793 11.918 11.6034C14.8878 8.62746 18.939 6.96606 23.1553 6.96606ZM33.7876 12.2059C27.9215 6.36357 18.4074 6.36357 12.523 12.2059C6.63856 18.0482 6.65689 27.5237 12.523 33.3843C18.3891 39.2448 27.9031 39.2266 33.7876 33.3843C36.6106 30.5726 38.1871 26.7751 38.1871 22.7951C38.1871 18.815 36.6106 15.0175 33.7876 12.2059Z" fill="url(#paint0_linear_3177_2309)"/>
<defs>
<linearGradient id="paint0_linear_3177_2309" x1="6.27695" y1="5.68352" x2="40.7858" y2="39.5995" gradientUnits="userSpaceOnUse">
<stop stop-color="#13EEAD"/>
<stop offset="0.25" stop-color="#48B9BF"/>
<stop offset="0.5" stop-color="#7C85D0"/>
<stop offset="0.75" stop-color="#A25EDD"/>
<stop offset="1" stop-color="#FE01FC"/>
</linearGradient>
</defs>
</svg>
