<svg width="55" height="44" viewBox="0 0 55 44" fill="none" xmlns="http://www.w3.org/2000/svg">
<path d="M42.3849 1.17716C44.4989 1.17716 46.5794 1.31881 48.6933 1.57379C49.398 0.242248 51.2435 -0.352695 52.8206 0.213917C54.3977 0.80886 55.1024 2.36704 54.4313 3.69858C53.7602 5.03012 51.8811 5.62506 50.304 5.05845C49.2638 4.66182 48.5256 3.81191 48.4585 2.84866C27.1509 0.072264 7.21904 12.3394 3.93063 30.301C3.62863 31.9725 3.46086 33.6724 3.46086 35.3722C3.46086 36.2505 3.49441 37.1004 3.59508 37.9786C5.3064 38.2053 6.48083 39.5368 6.21239 40.9817C5.94394 42.4265 4.36685 43.4181 2.65553 43.1915C0.944212 42.9648 -0.230222 41.6333 0.0382203 40.1884C0.205997 39.2252 0.977767 38.4319 2.05154 38.1203C1.98443 37.2137 1.91731 36.3071 1.91731 35.3722C1.88376 16.4757 20.0036 1.14883 42.3849 1.17716C42.3849 1.14883 42.3849 1.14883 42.3849 1.17716Z" fill="url(#paint0_linear_3667_3189)"/>
<defs>
<linearGradient id="paint0_linear_3667_3189" x1="11.4898" y1="8.8194" x2="64.4667" y2="70.2382" gradientUnits="userSpaceOnUse">
<stop stop-color="#13EEAD"/>
<stop offset="0.25" stop-color="#48B9BF"/>
<stop offset="0.5" stop-color="#7C85D0"/>
<stop offset="0.75" stop-color="#A25EDD"/>
<stop offset="1" stop-color="#FE01FC"/>
</linearGradient>
</defs>
</svg>
